# xmcd
#
# Track frame offsets:
#	150
#	20572
#	35058
#	52763
#	71513
#	87650
#	105362
#	124878
#	138368
#	155773
#	172419
#	189232
#	204694
#	221256
#	240458
#	260016
#
# Disc length: 3626 seconds
#
# Revision: 1
# Processed by: cddbd v1.5.2PL0 Copyright (c) Steve Scherf et al.
# Submitted via: audiograbber 1.83.01
#
DISCID=e90e2810
DTITLE=Brian Burns - American Junkyard
DYEAR=2009
DGENRE=Country
TTITLE0=American Junkyard
TTITLE1=The KIng is in His Castle
TTITLE2=State of the Art
TTITLE3=Rattlesnake Tequila
TTITLE4=The End Is Not In Sight
TTITLE5=Closer To the Truth
TTITLE6=J.D.'s Junk City
TTITLE7=An Afternoon at J.D.'s
TTITLE8=Upside Down
TTITLE9=Burnin' Gasoline
TTITLE10=To Make A Long Story Short
TTITLE11=Get Together
TTITLE12=Postcard From Jamaica
TTITLE13=Believe In You
TTITLE14=Along Old Fence Lines
TTITLE15=Fishin' Hole
EXTD=
EXTT0=
EXTT1=
EXTT2=
EXTT3=
EXTT4=
EXTT5=
EXTT6=
EXTT7=
EXTT8=
EXTT9=
EXTT10=
EXTT11=
EXTT12=
EXTT13=
EXTT14=
EXTT15=
PLAYORDER=
